# xmcd
#
# Track frame offsets: 
#        150
#        14939
#        34917
#        53931
#        70185
#        85996
#        105433
#        121104
#        141295
#        167715
#        193810
#        209310
#
# Disc length: 3163 seconds
#
# Revision: 0
# Processed by: cddbd v1.5.2PL0 Copyright (c) Steve Scherf et al.
# Submitted via: ExactAudioCopyFreeDBPlugin 1.0
#
DISCID=ae0c590c
DTITLE=Whiskey Myers - Early Morning Shakes
DYEAR=2014
DGENRE=Country
TTITLE0=Early Morning Shakes
TTITLE1=Hard Row To Hoe
TTITLE2=Dogwood
TTITLE3=Shelter From The Rain
TTITLE4=Home
TTITLE5=Headstone
TTITLE6=Where The Sun Don't Shine
TTITLE7=Reckoning
TTITLE8=Wild Baby Shake Me
TTITLE9=Lightning
TTITLE10=Need A Little Off For Bad Behavior
TTITLE11=Colloquy
EXTD=
EXTT0=
EXTT1=
EXTT2=
EXTT3=
EXTT4=
EXTT5=
EXTT6=
EXTT7=
EXTT8=
EXTT9=
EXTT10=
EXTT11=
PLAYORDER=
